<?xml version="1.0" encoding="UTF-8" standalone="no"?>
<svg
   version="1.1"
   width="100"
   height="100"
   viewBox="0 0 100 100"
   overflow="visible"
   enable-background="new 0 0 266 100"
   xml:space="preserve"
   id="svg12"
   sodipodi:docname="nubo-icon-colored-alpha.svg"
   inkscape:version="1.2.2 (b0a8486541, 2022-12-01)"
   xmlns:inkscape="http://www.inkscape.org/namespaces/inkscape"
   xmlns:sodipodi="http://sodipodi.sourceforge.net/DTD/sodipodi-0.dtd"
   xmlns="http://www.w3.org/2000/svg"
   xmlns:svg="http://www.w3.org/2000/svg"><defs
   id="defs16">
		
		
	</defs><sodipodi:namedview
   id="namedview14"
   pagecolor="#ffffff"
   bordercolor="#666666"
   borderopacity="1.0"
   inkscape:pageshadow="2"
   inkscape:pageopacity="0.0"
   inkscape:pagecheckerboard="0"
   showgrid="false"
   inkscape:zoom="4"
   inkscape:cx="135.875"
   inkscape:cy="58"
   inkscape:window-width="2518"
   inkscape:window-height="1011"
   inkscape:window-x="0"
   inkscape:window-y="32"
   inkscape:window-maximized="1"
   inkscape:current-layer="svg12"
   inkscape:showpageshadow="2"
   inkscape:deskcolor="#d1d1d1" />
	
	<g
   id="g366"
   transform="translate(-1.3737141)"
   style="fill:#008d8b;fill-opacity:1"><g
     id="g68"
     transform="matrix(3.429708,0,0,3.429708,-71.928008,-1311.5692)"
     style="fill:#008d8b;fill-opacity:1"><path
       class="cls-2"
       d="m 46.063737,394.30432 v -1.52261 H 42.25722 l 0.01776,1.63426 v 5.3875 0 c 0,0.0152 0,0.0279 0,0.0431 a 2.2166625,2.2166625 0 0 1 -4.433324,0 c 0,-0.0152 0,-0.0279 0,-0.0431 v 0 -5.50677 0 c 0,-0.0152 0,-0.0279 0,-0.0431 a 6.0079545,6.0079545 0 1 0 -12.015909,0 c 0,0.0152 0,0.0279 0,0.0431 v 0 7.20955 h 3.806518 v -7.20193 0 c 0,-0.0152 0,-0.0279 0,-0.0431 a 2.2141255,2.2141255 0 1 1 4.428251,0 c 0,0.0152 0,0.0279 0,0.0431 v 0 5.50676 0 c 0,0.0152 0,0.0279 0,0.0431 a 6.0092234,6.0092234 0 0 0 12.015906,0 c 0,-0.0152 0,-0.0279 0,-0.0431 v 0 z"
       id="path31"
       style="fill:#008d8b;fill-opacity:1;stroke-width:0.253768"
       inkscape:connector-curvature="0" /></g></g>
</svg>
